<svg width="35" height="36" viewBox="0 0 35 36" fill="none" xmlns="http://www.w3.org/2000/svg">
<rect y="0.5" width="35" height="35" fill="white"/>
<g clip-path="url(#clip0_68_1569)">
<path d="M22.2581 26.0074L20.6033 29.5313C20.0726 30.6614 19.432 31.7229 18.6977 32.7017L17.1201 27.7553L18.7306 24.2717C19.0539 23.5715 19.7181 23.151 20.4204 23.12C20.7316 23.1062 21.0505 23.1686 21.3502 23.3178C22.3229 23.8007 22.7298 25.0041 22.2581 26.0074Z" fill="url(#paint0_linear_68_1569)"/>
<path d="M25.4444 25.1226L23.2969 28.3502C22.0636 30.203 20.5173 31.7824 18.7509 33.0266L18.0252 28.6007C18.6717 28.0315 19.2464 27.3714 19.731 26.6332L21.7914 23.4956L22.2088 22.8598C22.8171 21.9333 24.042 21.692 24.9372 22.3228C25.8287 22.951 26.0564 24.2037 25.4444 25.1226Z" fill="url(#paint1_linear_68_1569)"/>
<path d="M28.0603 21.9412C27.2222 21.2314 25.9814 21.3605 25.2967 22.2285L22.5078 25.7621C21.4226 27.1378 20.0072 28.1718 18.422 28.7804L18.7584 33.1263C21.5237 32.0196 23.9955 30.1957 25.9139 27.7964L28.3277 24.7764C29.0151 23.9166 28.8953 22.6477 28.0603 21.9412Z" fill="url(#paint2_linear_68_1569)"/>
<path d="M31.4023 22.277C30.6217 21.5005 29.3748 21.5269 28.6254 22.3358L25.5727 25.6283C24.5205 26.7638 23.2306 27.6099 21.819 28.1193C22.0123 27.7384 22.0823 27.2906 21.9829 26.8435C21.9804 26.8321 21.9712 26.7909 21.9712 26.7909C21.7327 25.8007 20.767 25.1867 19.7962 25.417L18.6218 25.6957C17.5103 25.9594 16.3746 26.057 15.2488 25.9911C14.5649 25.9511 13.8923 25.7885 13.2627 25.5098C12.6435 25.2358 12.0451 24.9072 11.4745 24.5261C10.157 23.6457 8.64071 23.1983 7.11753 23.1983C6.75741 23.1983 6.11224 23.358 5.39865 23.5764C3.38147 24.1935 2 26.1121 2 28.2859V28.4146C2 31.2233 4.20347 33.5003 6.92153 33.5003H11.6151L16.5671 33.4116C21.1922 33.3293 25.5969 31.3594 28.8109 27.9367L31.4501 25.1251C32.2017 24.3249 32.1802 23.05 31.4023 22.277Z" fill="url(#paint3_linear_68_1569)"/>
<path d="M21.9712 26.7911C21.7326 25.8008 20.7669 25.1868 19.7961 25.4172L18.6217 25.6958C16.2947 26.2479 13.8619 26.0724 11.6352 25.1916C11.6096 25.1815 11.5839 25.1715 11.5583 25.1616C8.66721 24.053 6.63397 28.1338 9.18586 29.9227L9.4668 30.1197L11.9648 30.1794C14.4368 30.2385 16.9063 29.9792 19.3163 29.4074L20.584 29.1067C21.5644 28.874 22.2079 27.8568 21.9827 26.8437C21.9803 26.8322 21.9712 26.7911 21.9712 26.7911Z" fill="url(#paint4_linear_68_1569)"/>
<path d="M2.00282 28.2739C2.00153 28.3208 2 28.3676 2 28.4147C2 31.2234 4.20347 33.5003 6.92153 33.5003H11.6151L16.5671 33.4115C21.0379 33.332 25.3026 31.4884 28.4852 28.2739H2.00282Z" fill="url(#paint5_linear_68_1569)"/>
<path d="M7.08654 15.5023C9.1583 20.1813 12.9125 22.1117 16.2722 21.6213C16.5245 21.5844 16.7674 21.5347 17.0001 21.4728C16.4918 17.8283 13.761 14.4429 9.08707 13.5609C8.25001 13.403 7.45813 13.3756 6.72395 13.4523C6.54795 13.4707 6.45389 13.6257 6.50236 13.8173C6.64207 14.3694 6.83448 14.9332 7.08654 15.5023Z" fill="url(#paint6_linear_68_1569)"/>
<path d="M8.76405 14.0848C8.00422 13.8016 7.3054 13.6232 6.67422 13.5328C6.52293 13.5112 6.46587 13.6062 6.53981 13.7565C6.75287 14.1896 7.0141 14.6418 7.32846 15.1099C9.91252 18.958 13.5209 21.1249 16.3862 21.4363C16.6014 21.4597 16.8061 21.4717 17 21.4727C15.9565 18.6964 13.0068 15.6661 8.76405 14.0848Z" fill="url(#paint7_linear_68_1569)"/>
<path d="M9.087 13.5609C8.24994 13.403 7.45806 13.3756 6.72388 13.4523C6.64941 13.46 6.59082 13.4933 6.55029 13.5424L17 21.4728C16.4918 17.8283 13.7609 14.4429 9.087 13.5609Z" fill="url(#paint8_linear_68_1569)"/>
<path d="M12.7241 14.9468L10.6026 20.0961C12.3713 21.4078 14.3841 21.8969 16.2722 21.6213C16.5246 21.5844 16.7674 21.5347 17.0001 21.4728C16.6424 18.9086 15.1847 16.4728 12.7241 14.9468Z" fill="url(#paint9_linear_68_1569)"/>
<path d="M26.9135 15.5023C24.8417 20.1813 21.0875 22.1117 17.7278 21.6213C17.4755 21.5844 17.2326 21.5347 17 21.4728C17.5082 17.8283 20.2391 14.4429 24.913 13.5609C25.7501 13.403 26.5419 13.3756 27.2761 13.4523C27.4521 13.4707 27.5462 13.6257 27.4977 13.8173C27.3579 14.3694 27.1655 14.9332 26.9135 15.5023Z" fill="url(#paint10_linear_68_1569)"/>
<path d="M25.2359 14.0848C25.9958 13.8016 26.6946 13.6232 27.3258 13.5328C27.4771 13.5112 27.5341 13.6062 27.4602 13.7565C27.2471 14.1896 26.9859 14.6418 26.6715 15.1099C24.0875 18.958 20.4791 21.1249 17.6138 21.4363C17.3986 21.4597 17.1938 21.4717 17 21.4727C18.0435 18.6964 20.9932 15.6661 25.2359 14.0848Z" fill="url(#paint11_linear_68_1569)"/>
<path d="M24.913 13.5609C25.7501 13.403 26.5419 13.3756 27.2761 13.4523C27.3506 13.46 27.4092 13.4933 27.4497 13.5424L17 21.4728C17.5082 17.8283 20.2391 14.4429 24.913 13.5609Z" fill="url(#paint12_linear_68_1569)"/>
<path d="M21.2759 14.9468L23.3974 20.0961C21.6287 21.4078 19.6159 21.8969 17.7278 21.6213C17.4754 21.5844 17.2326 21.5347 17 21.4728C17.3576 18.9086 18.8154 16.4728 21.2759 14.9468Z" fill="url(#paint13_linear_68_1569)"/>
<path d="M13.4152 16.2415C13.4152 17.937 13.8234 19.2779 14.5326 20.4024C15.6923 22.2411 18.3076 22.2411 19.4673 20.4024C20.1765 19.2779 20.5847 17.937 20.5847 16.2415C20.5847 13.3093 19.3639 9.97356 17.4762 8.22596C17.2056 7.97546 16.7942 7.97546 16.5236 8.22596C14.636 9.97356 13.4152 13.3093 13.4152 16.2415Z" fill="url(#paint14_linear_68_1569)"/>
<path d="M14.7321 16.2415C14.7321 17.937 14.9904 19.2779 15.4391 20.4024C16.1727 22.2411 17.8273 22.2411 18.561 20.4024C19.0097 19.2779 19.2679 17.937 19.2679 16.2415C19.2679 13.3093 18.4956 9.97356 17.3014 8.22596C17.1302 7.97546 16.8699 7.97546 16.6987 8.22596C15.5044 9.97356 14.7321 13.3093 14.7321 16.2415Z" fill="url(#paint15_linear_68_1569)"/>
<path d="M19.4674 20.4024C20.1766 19.2779 20.5848 17.9371 20.5848 16.2415C20.5848 13.3093 19.364 9.97358 17.4763 8.22597C17.341 8.10069 17.1705 8.03809 17 8.03809V21.7814C17.9438 21.7814 18.8875 21.3218 19.4674 20.4024Z" fill="url(#paint16_linear_68_1569)"/>
<path d="M20.2563 6.76617C19.7085 6.53239 19.4476 5.88395 19.6739 5.3178L20.5256 3.1861C20.7518 2.61995 21.3793 2.35049 21.9272 2.58421C22.4751 2.81792 22.7359 3.46643 22.5097 4.03258L21.658 6.16428C21.4318 6.73043 20.8042 6.99995 20.2563 6.76617Z" fill="url(#paint17_linear_68_1569)"/>
<path d="M5.06568 9.82479C5.29192 9.25865 5.91945 8.98913 6.46733 9.22291L8.53027 10.103C9.07816 10.3367 9.33898 10.9852 9.11274 11.5514C8.88651 12.1175 8.25898 12.387 7.7111 12.1533L5.64816 11.2732C5.10027 11.0394 4.83951 10.3909 5.06568 9.82479Z" fill="url(#paint18_linear_68_1569)"/>
<path d="M24.8797 11.5328C24.6522 10.9672 24.9116 10.3181 25.4589 10.083L27.5199 9.19799C28.0672 8.96294 28.6954 9.23094 28.9229 9.79654C29.1503 10.3621 28.891 11.0112 28.3436 11.2463L26.2827 12.1313C25.7353 12.3664 25.1072 12.0984 24.8797 11.5328Z" fill="url(#paint19_linear_68_1569)"/>
<path d="M12.0453 2.59594C12.5927 2.36089 13.2208 2.62889 13.4483 3.19449L14.3048 5.32412C14.5322 5.88972 14.2729 6.53884 13.7255 6.77389C13.1782 7.00894 12.55 6.74095 12.3225 6.17535L11.4661 4.04571C11.2386 3.48011 11.4979 2.83099 12.0453 2.59594Z" fill="url(#paint20_linear_68_1569)"/>
</g>
<defs>
<linearGradient id="paint0_linear_68_1569" x1="17.5021" y1="26.055" x2="19.2986" y2="27.3462" gradientUnits="userSpaceOnUse">
<stop stop-color="#FFEEE6"/>
<stop offset="1" stop-color="#FFB09E"/>
</linearGradient>
<linearGradient id="paint1_linear_68_1569" x1="19.7319" y1="25.4542" x2="21.3229" y2="27.0058" gradientUnits="userSpaceOnUse">
<stop stop-color="#FFEEE6"/>
<stop offset="1" stop-color="#FFB09E"/>
</linearGradient>
<linearGradient id="paint2_linear_68_1569" x1="21.7033" y1="25.3692" x2="23.1566" y2="27.0599" gradientUnits="userSpaceOnUse">
<stop stop-color="#FFEEE6"/>
<stop offset="1" stop-color="#FFB09E"/>
</linearGradient>
<linearGradient id="paint3_linear_68_1569" x1="14.7049" y1="18.9814" x2="19.5427" y2="33.4578" gradientUnits="userSpaceOnUse">
<stop stop-color="#FFEEE6"/>
<stop offset="1" stop-color="#FFB09E"/>
</linearGradient>
<linearGradient id="paint4_linear_68_1569" x1="15.5065" y1="28.2066" x2="19.9043" y2="33.231" gradientUnits="userSpaceOnUse">
<stop stop-color="#FFDECF" stop-opacity="0"/>
<stop offset="1" stop-color="white"/>
</linearGradient>
<linearGradient id="paint5_linear_68_1569" x1="15.2426" y1="30.4778" x2="15.2426" y2="33.6685" gradientUnits="userSpaceOnUse">
<stop stop-color="#F89580" stop-opacity="0"/>
<stop offset="0.9972" stop-color="#C5715A"/>
</linearGradient>
<linearGradient id="paint6_linear_68_1569" x1="6.50686" y1="14.8198" x2="18.4555" y2="20.6517" gradientUnits="userSpaceOnUse">
<stop stop-color="#A2E62E"/>
<stop offset="0.1232" stop-color="#97DF30"/>
<stop offset="0.3396" stop-color="#7ACB36"/>
<stop offset="0.6236" stop-color="#4AAC3F"/>
<stop offset="0.9613" stop-color="#09804C"/>
<stop offset="1" stop-color="#017B4E"/>
</linearGradient>
<linearGradient id="paint7_linear_68_1569" x1="11.3669" y1="15.8955" x2="13.6478" y2="25.6" gradientUnits="userSpaceOnUse">
<stop stop-color="#017B4E" stop-opacity="0"/>
<stop offset="0.477" stop-color="#01754A" stop-opacity="0.477"/>
<stop offset="1" stop-color="#026841"/>
</linearGradient>
<linearGradient id="paint8_linear_68_1569" x1="11.6203" y1="15.5457" x2="12.0779" y2="21.6447" gradientUnits="userSpaceOnUse">
<stop stop-color="#017B4E" stop-opacity="0"/>
<stop offset="0.477" stop-color="#01754A" stop-opacity="0.477"/>
<stop offset="1" stop-color="#026841"/>
</linearGradient>
<linearGradient id="paint9_linear_68_1569" x1="12.4704" y1="17.9381" x2="16.1895" y2="19.6706" gradientUnits="userSpaceOnUse">
<stop stop-color="#017B4E" stop-opacity="0"/>
<stop offset="0.8532" stop-color="#026B43" stop-opacity="0.853"/>
<stop offset="1" stop-color="#026841"/>
</linearGradient>
<linearGradient id="paint10_linear_68_1569" x1="27.4964" y1="14.8255" x2="15.5477" y2="20.6575" gradientUnits="userSpaceOnUse">
<stop stop-color="#A2E62E"/>
<stop offset="0.1232" stop-color="#97DF30"/>
<stop offset="0.3396" stop-color="#7ACB36"/>
<stop offset="0.6236" stop-color="#4AAC3F"/>
<stop offset="0.9613" stop-color="#09804C"/>
<stop offset="1" stop-color="#017B4E"/>
</linearGradient>
<linearGradient id="paint11_linear_68_1569" x1="22.6307" y1="15.897" x2="20.3497" y2="25.6014" gradientUnits="userSpaceOnUse">
<stop stop-color="#017B4E" stop-opacity="0"/>
<stop offset="0.477" stop-color="#01754A" stop-opacity="0.477"/>
<stop offset="1" stop-color="#026841"/>
</linearGradient>
<linearGradient id="paint12_linear_68_1569" x1="22.3773" y1="15.5471" x2="21.9196" y2="21.6462" gradientUnits="userSpaceOnUse">
<stop stop-color="#017B4E" stop-opacity="0"/>
<stop offset="0.477" stop-color="#01754A" stop-opacity="0.477"/>
<stop offset="1" stop-color="#026841"/>
</linearGradient>
<linearGradient id="paint13_linear_68_1569" x1="21.5328" y1="17.944" x2="17.8137" y2="19.6764" gradientUnits="userSpaceOnUse">
<stop stop-color="#017B4E" stop-opacity="0"/>
<stop offset="0.8532" stop-color="#026B43" stop-opacity="0.853"/>
<stop offset="1" stop-color="#026841"/>
</linearGradient>
<linearGradient id="paint14_linear_68_1569" x1="14.3835" y1="12.5027" x2="20.128" y2="18.5453" gradientUnits="userSpaceOnUse">
<stop stop-color="#A2E62E"/>
<stop offset="0.1232" stop-color="#97DF30"/>
<stop offset="0.3396" stop-color="#7ACB36"/>
<stop offset="0.6236" stop-color="#4AAC3F"/>
<stop offset="0.9613" stop-color="#09804C"/>
<stop offset="1" stop-color="#017B4E"/>
</linearGradient>
<linearGradient id="paint15_linear_68_1569" x1="14.3061" y1="12.4336" x2="25.8888" y2="23.2046" gradientUnits="userSpaceOnUse">
<stop stop-color="#017B4E" stop-opacity="0"/>
<stop offset="0.477" stop-color="#01754A" stop-opacity="0.477"/>
<stop offset="1" stop-color="#026841"/>
</linearGradient>
<linearGradient id="paint16_linear_68_1569" x1="18.2359" y1="14.3311" x2="14.2178" y2="23.1924" gradientUnits="userSpaceOnUse">
<stop stop-color="#017B4E" stop-opacity="0"/>
<stop offset="0.477" stop-color="#01754A" stop-opacity="0.477"/>
<stop offset="1" stop-color="#026841"/>
</linearGradient>
<linearGradient id="paint17_linear_68_1569" x1="20.1304" y1="4.26826" x2="22.9106" y2="5.38059" gradientUnits="userSpaceOnUse">
<stop stop-color="#FEE97D"/>
<stop offset="0.1454" stop-color="#FEE673"/>
<stop offset="0.3904" stop-color="#FDDF59"/>
<stop offset="0.7025" stop-color="#FBD32F"/>
<stop offset="1" stop-color="#FAC600"/>
</linearGradient>
<linearGradient id="paint18_linear_68_1569" x1="7.46183" y1="9.58456" x2="6.25779" y2="12.403" gradientUnits="userSpaceOnUse">
<stop stop-color="#FEE97D"/>
<stop offset="0.1454" stop-color="#FEE673"/>
<stop offset="0.3904" stop-color="#FDDF59"/>
<stop offset="0.7025" stop-color="#FBD32F"/>
<stop offset="1" stop-color="#FAC600"/>
</linearGradient>
<linearGradient id="paint19_linear_68_1569" x1="26.6594" y1="9.78135" x2="27.8696" y2="12.5965" gradientUnits="userSpaceOnUse">
<stop stop-color="#FEE97D"/>
<stop offset="0.1454" stop-color="#FEE673"/>
<stop offset="0.3904" stop-color="#FDDF59"/>
<stop offset="0.7025" stop-color="#FBD32F"/>
<stop offset="1" stop-color="#FAC600"/>
</linearGradient>
<linearGradient id="paint20_linear_68_1569" x1="13.8227" y1="4.49515" x2="11.045" y2="5.61347" gradientUnits="userSpaceOnUse">
<stop stop-color="#FEE97D"/>
<stop offset="0.1454" stop-color="#FEE673"/>
<stop offset="0.3904" stop-color="#FDDF59"/>
<stop offset="0.7025" stop-color="#FBD32F"/>
<stop offset="1" stop-color="#FAC600"/>
</linearGradient>
<clipPath id="clip0_68_1569">
<rect width="30" height="31" fill="white" transform="translate(2 2.5)"/>
</clipPath>
</defs>
</svg>
