<svg width="162" height="166" viewBox="0 0 162 166" fill="none" xmlns="http://www.w3.org/2000/svg">
<path opacity="0.4" d="M150.251 49.2753C150.669 49.6794 151.331 49.6794 151.749 49.2753C152.046 48.9884 152.48 48.8961 152.868 49.0375C153.414 49.2367 154.02 48.9671 154.237 48.428C154.391 48.0453 154.75 47.7843 155.162 47.7558C155.742 47.7157 156.186 47.223 156.165 46.6422C156.15 46.2298 156.372 45.8452 156.737 45.6518C157.25 45.3793 157.455 44.7488 157.2 44.2266C157.019 43.8558 157.065 43.4142 157.319 43.0892C157.677 42.6315 157.608 41.9722 157.163 41.5989C156.846 41.3339 156.709 40.9115 156.809 40.5112C156.95 39.9474 156.619 39.3732 156.06 39.2135C155.663 39.1 155.366 38.77 155.295 38.3636C155.194 37.7911 154.658 37.4014 154.082 37.4828C153.674 37.5405 153.268 37.3599 153.038 37.0176C152.713 36.5355 152.064 36.3977 151.572 36.7061C151.222 36.925 150.778 36.925 150.428 36.7061C149.936 36.3977 149.287 36.5355 148.962 37.0176C148.732 37.3599 148.326 37.5405 147.918 37.4828C147.342 37.4014 146.806 37.7911 146.705 38.3636C146.634 38.77 146.337 39.1 145.94 39.2135C145.381 39.3732 145.05 39.9474 145.191 40.5112C145.291 40.9115 145.154 41.3339 144.837 41.5989C144.392 41.9722 144.323 42.6315 144.681 43.0892C144.935 43.4142 144.981 43.8558 144.8 44.2266C144.545 44.7488 144.75 45.3793 145.263 45.6518C145.628 45.8452 145.85 46.2298 145.835 46.6422C145.814 47.223 146.258 47.7157 146.838 47.7558C147.25 47.7843 147.609 48.0453 147.763 48.428C147.98 48.9671 148.586 49.2367 149.132 49.0375C149.52 48.8961 149.954 48.9884 150.251 49.2753Z" fill="#1B5E37"/>
<path opacity="0.4" d="M10.2507 24.2753C10.6685 24.6794 11.3315 24.6794 11.7493 24.2753C12.0459 23.9884 12.4803 23.8961 12.8679 24.0375C13.4139 24.2367 14.0196 23.9671 14.2369 23.428C14.3912 23.0453 14.7504 22.7843 15.1621 22.7558C15.742 22.7157 16.1856 22.223 16.1648 21.6422C16.1501 21.2298 16.3721 20.8452 16.7366 20.6518C17.25 20.3793 17.4549 19.7488 17.1997 19.2266C17.0185 18.8558 17.0649 18.4142 17.3192 18.0892C17.6774 17.6315 17.6081 16.9722 17.1626 16.5989C16.8463 16.3339 16.709 15.9115 16.8092 15.5112C16.9503 14.9474 16.6188 14.3732 16.0599 14.2135C15.6632 14.1 15.366 13.77 15.2947 13.3636C15.1942 12.7911 14.6579 12.4014 14.0824 12.4828C13.6738 12.5405 13.2681 12.3599 13.0376 12.0176C12.713 11.5355 12.0645 11.3977 11.5718 11.7061C11.222 11.925 10.778 11.925 10.4282 11.7061C9.93551 11.3977 9.28704 11.5355 8.96241 12.0176C8.73193 12.3599 8.32623 12.5405 7.91763 12.4828C7.34212 12.4014 6.80578 12.7911 6.70531 13.3636C6.63398 13.77 6.33682 14.1 5.94006 14.2135C5.38122 14.3732 5.04974 14.9474 5.1908 15.5112C5.29095 15.9115 5.15372 16.3339 4.8374 16.5989C4.39185 16.9722 4.32255 17.6315 4.68076 18.0892C4.93507 18.4142 4.98149 18.8558 4.8003 19.2266C4.54509 19.7488 4.74996 20.3793 5.26337 20.6518C5.62788 20.8452 5.84992 21.2298 5.83519 21.6422C5.81445 22.223 6.25805 22.7157 6.83789 22.7558C7.24957 22.7843 7.60885 23.0453 7.76313 23.428C7.98043 23.9671 8.58607 24.2367 9.13208 24.0375C9.51974 23.8961 9.95413 23.9884 10.2507 24.2753Z" fill="#1B5E37"/>
<path d="M86.6298 20.7106C89.3454 18.084 93.6546 18.084 96.3702 20.7106C98.2981 22.5753 101.122 23.1755 103.641 22.2561C107.191 20.9611 111.127 22.7139 112.54 26.2179C113.542 28.7056 115.878 30.4023 118.554 30.5873C122.323 30.8478 125.206 34.0502 125.071 37.8258C124.976 40.5063 126.419 43.0062 128.788 44.2636C132.125 46.0346 133.457 50.1329 131.798 53.5272C130.62 55.937 130.922 58.8078 132.575 60.9202C134.903 63.8954 134.453 68.181 131.557 70.6071C129.501 72.3296 128.609 75.075 129.26 77.677C130.177 81.3421 128.022 85.0739 124.39 86.1124C121.811 86.8497 119.879 88.9949 119.415 91.6367C118.762 95.3579 115.276 97.8907 111.535 97.362C108.88 96.9866 106.242 98.1607 104.744 100.386C102.634 103.519 98.4192 104.415 95.2169 102.411C92.9433 100.987 90.0567 100.987 87.7831 102.411C84.5808 104.415 80.3658 103.519 78.2557 100.386C76.7575 98.1607 74.1205 96.9866 71.4646 97.362C67.7238 97.8907 64.2376 95.3579 63.5845 91.6367C63.1208 88.9949 61.1893 86.8497 58.6104 86.1124C54.9779 85.0739 52.8233 81.3421 53.7402 77.677C54.3912 75.075 53.4992 72.3296 51.4431 70.6071C48.547 68.181 48.0966 63.8954 50.4249 60.9202C52.078 58.8078 52.3797 55.937 51.202 53.5272C49.5431 50.1329 50.8747 46.0346 54.2119 44.2636C56.5812 43.0062 58.0245 40.5063 57.9288 37.8258C57.7939 34.0502 60.6773 30.8478 64.4463 30.5873C67.1222 30.4023 69.4575 28.7056 70.4603 26.2179C71.8728 22.7138 75.8094 20.9611 79.3586 22.2561C81.8783 23.1755 84.7019 22.5753 86.6298 20.7106Z" fill="#1B5E37"/>
<path d="M72.1608 60.9481L83.8062 74.7937C84.1617 75.2164 84.7926 75.2709 85.2152 74.9154L114.213 50.5257" stroke="white" stroke-width="4"/>
<path opacity="0.4" d="M97.1254 6.63765C97.3343 6.83969 97.6657 6.83969 97.8746 6.63765C98.0229 6.4942 98.2401 6.44804 98.434 6.51876C98.707 6.61837 99.0098 6.48355 99.1184 6.21401C99.1956 6.02265 99.3752 5.89213 99.5811 5.8779C99.871 5.85786 100.093 5.61152 100.082 5.32109C100.075 5.1149 100.186 4.9226 100.368 4.82588C100.625 4.68965 100.727 4.3744 100.6 4.11329C100.509 3.92792 100.532 3.70709 100.66 3.5446C100.839 3.31574 100.804 2.98608 100.581 2.79945C100.423 2.66695 100.355 2.45577 100.405 2.25561C100.475 1.97369 100.309 1.68662 100.03 1.60674C99.8316 1.55002 99.683 1.38501 99.6473 1.18179C99.5971 0.89555 99.3289 0.700713 99.0412 0.741387C98.8369 0.770265 98.634 0.67995 98.5188 0.508805C98.3565 0.267746 98.0322 0.198828 97.7859 0.353026C97.611 0.462502 97.389 0.462502 97.2141 0.353026C96.9678 0.198828 96.6435 0.267746 96.4812 0.508805C96.366 0.67995 96.1631 0.770265 95.9588 0.741387C95.6711 0.700713 95.4029 0.89555 95.3527 1.18179C95.317 1.38501 95.1684 1.55002 94.97 1.60674C94.6906 1.68662 94.5249 1.97369 94.5954 2.25561C94.6455 2.45577 94.5769 2.66695 94.4187 2.79945C94.1959 2.98608 94.1613 3.31574 94.3404 3.5446C94.4675 3.70709 94.4907 3.92792 94.4002 4.11329C94.2725 4.3744 94.375 4.68965 94.6317 4.82588C94.8139 4.9226 94.925 5.1149 94.9176 5.32109C94.9072 5.61152 95.129 5.85786 95.4189 5.8779C95.6248 5.89213 95.8044 6.02265 95.8816 6.21401C95.9902 6.48355 96.293 6.61837 96.566 6.51876C96.7599 6.44804 96.9771 6.4942 97.1254 6.63765Z" fill="#1B5E37"/>
<path opacity="0.4" d="M25.9113 101.431C26.2396 101.748 26.7604 101.748 27.0887 101.431C27.3218 101.205 27.6631 101.133 27.9676 101.244C28.3967 101.4 28.8725 101.188 29.0433 100.765C29.1645 100.464 29.4468 100.259 29.7702 100.237C30.2258 100.205 30.5744 99.8181 30.5581 99.3617C30.5465 99.0377 30.721 98.7355 31.0074 98.5835C31.4107 98.3694 31.5717 97.8741 31.3712 97.4637C31.2288 97.1724 31.2653 96.8254 31.4651 96.5701C31.7466 96.2104 31.6921 95.6924 31.342 95.3991C31.0935 95.1909 30.9857 94.8591 31.0644 94.5445C31.1752 94.1015 30.9148 93.6504 30.4757 93.5249C30.1639 93.4358 29.9304 93.1764 29.8744 92.8571C29.7955 92.4073 29.374 92.1011 28.9219 92.165C28.6008 92.2104 28.2821 92.0685 28.101 91.7996C27.8459 91.4207 27.3364 91.3124 26.9493 91.5548C26.6745 91.7268 26.3255 91.7268 26.0507 91.5548C25.6636 91.3124 25.1541 91.4207 24.899 91.7996C24.7179 92.0685 24.3992 92.2104 24.0781 92.165C23.626 92.1011 23.2045 92.4073 23.1256 92.8571C23.0696 93.1764 22.8361 93.4358 22.5243 93.5249C22.0852 93.6504 21.8248 94.1015 21.9356 94.5445C22.0143 94.8591 21.9065 95.1909 21.658 95.3991C21.3079 95.6924 21.2534 96.2104 21.5349 96.5701C21.7347 96.8254 21.7712 97.1724 21.6288 97.4637C21.4283 97.8741 21.5893 98.3694 21.9926 98.5835C22.279 98.7355 22.4535 99.0377 22.4419 99.3617C22.4256 99.8181 22.7742 100.205 23.2298 100.237C23.5532 100.259 23.8355 100.464 23.9567 100.765C24.1275 101.188 24.6033 101.4 25.0324 101.244C25.3369 101.133 25.6782 101.205 25.9113 101.431Z" fill="#1B5E37"/>
<path opacity="0.4" d="M21.1254 56.6376C21.3343 56.8397 21.6657 56.8397 21.8746 56.6376C22.0229 56.4942 22.2401 56.448 22.434 56.5188C22.707 56.6184 23.0098 56.4836 23.1184 56.214C23.1956 56.0226 23.3752 55.8921 23.5811 55.8779C23.871 55.8579 24.0928 55.6115 24.0824 55.3211C24.075 55.1149 24.1861 54.9226 24.3683 54.8259C24.625 54.6896 24.7275 54.3744 24.5998 54.1133C24.5093 53.9279 24.5325 53.7071 24.6596 53.5446C24.8387 53.3157 24.8041 52.9861 24.5813 52.7995C24.4231 52.667 24.3545 52.4558 24.4046 52.2556C24.4751 51.9737 24.3094 51.6866 24.03 51.6067C23.8316 51.55 23.683 51.385 23.6473 51.1818C23.5971 50.8955 23.3289 50.7007 23.0412 50.7414C22.8369 50.7703 22.634 50.6799 22.5188 50.5088C22.3565 50.2677 22.0322 50.1988 21.7859 50.353C21.611 50.4625 21.389 50.4625 21.2141 50.353C20.9678 50.1988 20.6435 50.2677 20.4812 50.5088C20.366 50.68 20.1631 50.7703 19.9588 50.7414C19.6711 50.7007 19.4029 50.8955 19.3527 51.1818C19.317 51.385 19.1684 51.55 18.97 51.6067C18.6906 51.6866 18.5249 51.9737 18.5954 52.2556C18.6455 52.4558 18.5769 52.667 18.4187 52.7995C18.1959 52.9861 18.1613 53.3157 18.3404 53.5446C18.4675 53.7071 18.4907 53.9279 18.4002 54.1133C18.2725 54.3744 18.375 54.6896 18.6317 54.8259C18.8139 54.9226 18.925 55.1149 18.9176 55.3211C18.9072 55.6115 19.129 55.8579 19.4189 55.8779C19.6248 55.8921 19.8044 56.0226 19.8816 56.214C19.9902 56.4836 20.293 56.6184 20.566 56.5188C20.7599 56.448 20.9771 56.4942 21.1254 56.6376Z" fill="#1B5E37"/>
<path opacity="0.4" d="M131.125 86.6376C131.334 86.8397 131.666 86.8397 131.875 86.6376C132.023 86.4942 132.24 86.448 132.434 86.5188C132.707 86.6184 133.01 86.4836 133.118 86.214C133.196 86.0226 133.375 85.8921 133.581 85.8779C133.871 85.8579 134.093 85.6115 134.082 85.3211C134.075 85.1149 134.186 84.9226 134.368 84.8259C134.625 84.6896 134.727 84.3744 134.6 84.1133C134.509 83.9279 134.532 83.7071 134.66 83.5446C134.839 83.3157 134.804 82.9861 134.581 82.7995C134.423 82.667 134.355 82.4558 134.405 82.2556C134.475 81.9737 134.309 81.6866 134.03 81.6067C133.832 81.55 133.683 81.385 133.647 81.1818C133.597 80.8955 133.329 80.7007 133.041 80.7414C132.837 80.7703 132.634 80.6799 132.519 80.5088C132.356 80.2677 132.032 80.1988 131.786 80.353C131.611 80.4625 131.389 80.4625 131.214 80.353C130.968 80.1988 130.644 80.2677 130.481 80.5088C130.366 80.68 130.163 80.7703 129.959 80.7414C129.671 80.7007 129.403 80.8955 129.353 81.1818C129.317 81.385 129.168 81.55 128.97 81.6067C128.691 81.6866 128.525 81.9737 128.595 82.2556C128.645 82.4558 128.577 82.667 128.419 82.7995C128.196 82.9861 128.161 83.3157 128.34 83.5446C128.468 83.7071 128.491 83.9279 128.4 84.1133C128.273 84.3744 128.375 84.6896 128.632 84.8259C128.814 84.9226 128.925 85.1149 128.918 85.3211C128.907 85.6115 129.129 85.8579 129.419 85.8779C129.625 85.8921 129.804 86.0226 129.882 86.214C129.99 86.4836 130.293 86.6184 130.566 86.5188C130.76 86.448 130.977 86.4942 131.125 86.6376Z" fill="#1B5E37"/>
<path d="M4.80069 156.68C4.26735 156.68 3.84602 156.819 3.53669 157.096C3.23802 157.384 3.08869 157.8 3.08869 158.344C3.08869 158.888 3.24869 159.32 3.56869 159.64C3.89935 159.971 4.39535 160.136 5.05669 160.136C5.34469 160.136 5.77135 160.109 6.33669 160.056C6.90202 160.003 7.47802 159.928 8.06469 159.832L8.30469 161.464C7.78202 161.613 7.16869 161.747 6.46469 161.864C5.76069 161.992 5.14735 162.056 4.62469 162.056C3.45135 162.056 2.54469 161.709 1.90469 161.016C1.26469 160.333 0.944688 159.395 0.944688 158.2C0.944688 157.101 1.22735 156.264 1.79269 155.688C2.36869 155.101 3.21669 154.808 4.33669 154.808C4.76335 154.808 5.18469 154.845 5.60069 154.92C6.02735 154.984 6.39002 155.064 6.68869 155.16V152.04C6.68869 151.581 6.58735 151.24 6.38469 151.016C6.19269 150.781 5.85669 150.664 5.37669 150.664C4.39535 150.696 3.54202 150.728 2.81669 150.76L2.00069 150.792L1.93669 149.368C2.49135 149.219 3.16335 149.096 3.95269 149C4.74202 148.893 5.40869 148.84 5.95269 148.84C6.95535 148.84 7.68069 149.053 8.12869 149.48C8.58735 149.896 8.82202 150.563 8.83269 151.48V157H6.68869C6.41135 156.915 6.09669 156.84 5.74469 156.776C5.39269 156.712 5.07802 156.68 4.80069 156.68ZM14.7811 155.048V157H11.0691V145.8H13.2131V155.048H14.7811ZM24.5974 155.048V157H14.7734V155.048H20.8054V152.04C20.8054 151.581 20.7041 151.24 20.5014 151.016C20.3094 150.781 19.9734 150.664 19.4934 150.664C18.5121 150.696 17.6588 150.728 16.9334 150.76L16.1174 150.792L16.0534 149.368C16.6081 149.219 17.2801 149.096 18.0694 149C18.8588 148.893 19.5254 148.84 20.0694 148.84C21.0721 148.84 21.7974 149.053 22.2454 149.48C22.7041 149.896 22.9388 150.563 22.9494 151.48V155.048H24.5974ZM18.7254 158.28H20.6934V160.36H18.7254V158.28ZM31.5296 155.048V157H24.6016V155.048H26.9856V149H29.1296V155.048H31.5296ZM27.0496 145.432H29.0176V147.512H27.0496V145.432ZM36.0514 149V157H31.5234V155.048H33.9074V149H36.0514ZM34.0194 158.28H35.9874V160.36H34.0194V158.28ZM44.3117 148.632C45.165 148.632 45.9117 148.845 46.5517 149.272C47.2024 149.688 47.7037 150.317 48.0557 151.16C48.4184 152.003 48.5997 153.037 48.5997 154.264V157H41.3197V155.048H46.4557V154.472C46.4557 153.085 46.1944 152.099 45.6717 151.512C45.149 150.915 44.525 150.616 43.7997 150.616H42.1837L42.0237 148.936C42.3544 148.861 42.7277 148.792 43.1437 148.728C43.5704 148.664 43.9597 148.632 44.3117 148.632ZM50.8939 160.968C50.7553 160.968 50.3659 160.947 49.7259 160.904V158.984L50.2699 159.016C50.6539 159.016 50.9419 158.861 51.1339 158.552C51.3259 158.253 51.4219 157.827 51.4219 157.272V149H53.5659V156.904C53.5659 158.184 53.3419 159.181 52.8939 159.896C52.4566 160.611 51.7899 160.968 50.8939 160.968ZM64.5234 157H62.5074C62.2728 159.645 61.1634 160.968 59.1794 160.968C58.6034 160.968 57.6754 160.867 56.3954 160.664V158.728C57.6754 158.92 58.5394 159.016 58.9874 159.016C59.3288 159.016 59.5954 158.957 59.7874 158.84C59.9794 158.723 60.1181 158.52 60.2034 158.232C60.2994 157.944 60.3474 157.533 60.3474 157H58.4914C56.2834 157 55.1794 155.752 55.1794 153.256C55.1794 151.987 55.3181 151.021 55.5954 150.36C55.8834 149.699 56.2834 149.256 56.7954 149.032C57.3181 148.797 58.0008 148.68 58.8434 148.68C59.4621 148.68 60.1181 148.723 60.8114 148.808C61.5048 148.883 62.0861 148.973 62.5554 149.08V155.048H64.5234V157ZM57.3234 153.128C57.3234 153.672 57.4408 154.131 57.6754 154.504C57.9101 154.867 58.3794 155.048 59.0834 155.048H60.4114V150.712C60.0061 150.659 59.6168 150.632 59.2434 150.632C58.7954 150.632 58.4381 150.696 58.1714 150.824C57.9048 150.941 57.6968 151.181 57.5474 151.544C57.3981 151.896 57.3234 152.424 57.3234 153.128ZM76.8434 148.984C76.9608 149.667 77.0621 150.36 77.1474 151.064C77.2434 151.768 77.2914 152.264 77.2914 152.552V157H73.9954C73.6434 157 73.3021 156.941 72.9714 156.824C72.6514 156.707 72.3901 156.568 72.1874 156.408C71.7608 156.803 71.2274 157 70.5874 157H64.5234V155.048H66.9714V149.8H69.1154V155.048H69.8514C70.2568 155.048 70.5661 154.888 70.7794 154.568C71.0034 154.237 71.1154 153.816 71.1154 153.304V149.8H73.2594V153.304C73.2594 153.848 73.2061 154.333 73.0994 154.76C73.1954 154.835 73.3181 154.904 73.4674 154.968C73.6274 155.021 73.7874 155.048 73.9474 155.048H75.1474V152.856C75.1474 152.173 75.1368 151.597 75.1154 151.128C75.0941 150.648 75.0461 149.96 74.9714 149.064L76.8434 148.984ZM83.2498 155.048V157H79.5378V145.8H81.6818V155.048H83.2498ZM90.1702 155.048V157H83.2422V155.048H85.6262V149H87.7702V155.048H90.1702ZM85.6902 158.28H87.6582V160.36H85.6902V158.28ZM94.2761 145.8V157H90.1641V155.048H92.1321V145.8H94.2761ZM96.8347 145.8H98.9787V157H96.8347V145.8ZM111.05 157H108.41C108.399 158.259 108.17 159.235 107.722 159.928C107.284 160.621 106.623 160.968 105.738 160.968C105.599 160.968 105.21 160.947 104.57 160.904V158.984L105.114 159.016C105.498 159.016 105.786 158.861 105.978 158.552C106.17 158.253 106.266 157.827 106.266 157.272V149H108.41V155.048H111.05V157ZM117.983 155.048V157H111.055V155.048H113.439V149H115.583V155.048H117.983ZM112.447 158.28H114.095V160.28H112.447V158.28ZM114.879 158.28H116.527V160.28H114.879V158.28ZM124.905 155.048V157H117.977V155.048H120.361V149H122.505V155.048H124.905ZM119.369 158.28H121.017V160.28H119.369V158.28ZM121.801 158.28H123.449V160.28H121.801V158.28ZM135.554 155.048V157H133.458C132.925 157 132.381 156.941 131.826 156.824C131.282 156.696 130.77 156.525 130.29 156.312C129.81 156.525 129.298 156.696 128.754 156.824C128.221 156.941 127.709 157 127.218 157H124.898V155.048H127.17C127.501 155.048 127.864 155.005 128.258 154.92C127.501 154.237 126.925 153.635 126.53 153.112C126.146 152.589 125.954 152.04 125.954 151.464L125.906 150.056C126.408 149.736 127.064 149.448 127.874 149.192C128.685 148.936 129.485 148.808 130.274 148.808C131.053 148.808 131.853 148.936 132.674 149.192C133.506 149.448 134.184 149.736 134.706 150.056L134.642 151.464C134.642 152.051 134.445 152.6 134.05 153.112C133.666 153.624 133.096 154.227 132.338 154.92C132.733 155.005 133.101 155.048 133.442 155.048H135.554ZM130.306 154.088C131.096 153.597 131.672 153.096 132.034 152.584C132.408 152.072 132.594 151.597 132.594 151.16C131.805 150.893 131.037 150.76 130.29 150.76C129.554 150.76 128.802 150.893 128.034 151.16C128.034 151.608 128.226 152.099 128.61 152.632C128.994 153.165 129.56 153.651 130.306 154.088ZM129.234 145.432H131.202V147.512H129.234V145.432ZM140.083 149V157H135.555V155.048H137.939V149H140.083ZM136.995 145.512H138.643V147.512H136.995V145.512ZM139.427 145.512H141.075V147.512H139.427V145.512ZM156.055 155.048V157H155.175C154.994 157 154.823 156.936 154.663 156.808C154.503 156.68 154.386 156.515 154.311 156.312V157H149.127C148.658 157 148.242 157.149 147.879 157.448C147.516 157.757 147.335 158.344 147.335 159.208C147.335 159.869 147.479 160.861 147.767 162.184L145.943 162.248C145.794 161.597 145.655 160.888 145.527 160.12C145.41 159.363 145.351 158.728 145.351 158.216C145.351 157.469 145.484 156.867 145.751 156.408C146.028 155.939 146.38 155.592 146.807 155.368C146.615 154.557 146.519 153.773 146.519 153.016C146.519 152.429 146.578 151.8 146.695 151.128C146.812 150.456 146.946 149.875 147.095 149.384C147.383 149.245 147.81 149.123 148.375 149.016C148.94 148.909 149.57 148.856 150.263 148.856C151.362 148.856 152.204 149.016 152.791 149.336C153.388 149.656 153.788 150.109 153.991 150.696C154.204 151.283 154.311 152.051 154.311 153V154.36C154.386 154.573 154.503 154.744 154.663 154.872C154.823 154.989 154.994 155.048 155.175 155.048H156.055ZM152.167 155.048V152.952C152.167 152.205 152.018 151.656 151.719 151.304C151.431 150.952 150.871 150.776 150.039 150.776C149.634 150.776 149.228 150.819 148.823 150.904C148.674 151.704 148.599 152.408 148.599 153.016C148.599 153.379 148.62 153.752 148.663 154.136C148.716 154.509 148.77 154.813 148.823 155.048H152.167ZM160.583 149V157H156.055V155.048H158.439V149H160.583ZM157.495 145.512H159.143V147.512H157.495V145.512ZM159.927 145.512H161.575V147.512H159.927V145.512Z" fill="#0C0D0D"/>
</svg>
